<svg width="19" height="17" viewBox="0 0 19 17" fill="none" xmlns="http://www.w3.org/2000/svg">
<path fill-rule="evenodd" clip-rule="evenodd" d="M18.4242 16.4453L13.8132 16.4454V15.8064L14.6953 14.6503L17.5423 14.6502L18.4242 15.8063V16.4453ZM3.89926 16.4456L3.89922 14.8864L9.08409 14.8863L9.08413 16.4455L3.89926 16.4456ZM0.575844 3.36819L0.57618 16.4457L3.32371 16.4456L3.3235 8.57853C3.3235 8.25519 3.59683 7.99234 3.93252 7.9923H4.20392L4.20379 3.36811C4.20379 3.25187 4.10557 3.15733 3.98501 3.15733L0.794584 3.15741C0.674065 3.15737 0.575844 3.25195 0.575844 3.36819ZM9.08392 8.57841L9.08396 10.1057L3.89909 10.1058L3.89905 8.57853C3.89905 8.56148 3.9148 8.54656 3.93252 8.54656L9.05091 8.54644C9.06863 8.5464 9.08392 8.56135 9.08392 8.57841ZM9.084 12.2188L3.89914 12.2189L3.89909 10.66L9.08396 10.6598L9.084 12.2188ZM3.89918 14.1828L3.89914 12.7732L9.084 12.773L9.08404 14.332L3.89918 14.3321V14.1828ZM11.2999 11.7925L11.3 16.4454L9.65989 16.4455L9.65976 11.7939L11.2999 11.7925ZM16.119 13.0369L17.062 14.0961L15.1755 14.0961L16.119 13.0369ZM15.7397 12.6109L14.8376 11.598L14.8377 13.6241L15.7397 12.6109ZM15.7396 9.08716L14.8376 10.1004L14.8375 8.07423L15.7396 9.08716ZM14.8374 4.55007L15.7394 5.56299L14.8374 6.5762L14.8374 4.55007ZM14.2616 2.34932L8.48124 2.34944L14.2615 0.651424L14.2616 2.34932ZM16.1187 1.61342L15.1751 0.554299L17.0617 0.554258L16.1187 1.61342ZM16.4976 2.03947L17.3996 3.05196L17.3996 1.02631L16.4976 2.03947ZM16.1187 2.46508L14.9284 3.80115L16.1188 5.13763L17.3087 3.80111L16.1187 2.46508ZM14.8373 1.02635L14.8374 3.052L15.7394 2.03947L14.8373 1.02635ZM16.4977 5.56295L17.3997 4.54999L17.3997 6.57612L16.4977 5.56295ZM16.1189 8.66111L17.3088 7.32504L16.1188 5.989L14.9285 7.32508L16.1189 8.66111ZM16.4977 9.08716L17.3997 8.07419L17.3998 10.1003L16.4977 9.08716ZM16.4978 12.6109L17.3999 13.624L17.3998 11.5979L16.4978 12.6109ZM16.119 12.1853L14.9285 10.849L16.1189 9.51272L17.3088 10.849L16.119 12.1853ZM6.8395 3.35659V2.9037L14.2616 2.90354V3.35643L6.8395 3.35659ZM18.9439 15.5514L17.9754 14.2823L17.975 0.277109C17.975 0.124206 17.8465 0 17.6874 0L14.511 0.00311221L14.4628 0.0129339L6.46765 2.36165C6.34932 2.39645 6.2637 2.50174 6.2637 2.62663L6.26374 3.63374C6.26374 3.78729 6.39119 3.91085 6.55626 3.91085L6.5563 4.73401C6.05596 4.85753 5.68487 5.29526 5.68487 5.81492C5.68487 6.43053 6.20491 6.93152 6.84424 6.93148C7.25485 6.93148 7.63929 6.719 7.84644 6.37678C7.92622 6.24489 7.88037 6.07493 7.74284 5.99814C7.60532 5.92086 7.42924 5.96568 7.34895 6.09805C7.24464 6.27011 7.0511 6.37726 6.84424 6.37726C6.52216 6.37726 6.26042 6.12493 6.26042 5.81488C6.26042 5.50532 6.52212 5.25294 6.8442 5.25294C7.00331 5.25294 7.1321 5.12922 7.1321 4.97583L7.13206 3.91085L14.2616 3.91069L14.2619 14.2825L13.2937 15.5515C13.2571 15.5991 13.2377 15.6568 13.2377 15.7154V16.4454L11.8758 16.4455L11.8757 11.7925C11.8757 11.4881 11.6181 11.2397 11.3015 11.2397L9.65976 11.2398L9.65968 8.57841C9.65968 8.25506 9.38681 7.99222 9.05087 7.99222L4.77968 7.99234L4.77955 3.36815C4.77955 2.9463 4.42325 2.60315 3.98497 2.60315L2.67766 2.60319L2.67761 0.96111C2.67761 0.807965 2.54882 0.684001 2.38971 0.684001C2.23086 0.684001 2.10181 0.807965 2.10181 0.96111L2.10185 2.60319L0.794541 2.60323C0.356517 2.60323 -4.19889e-05 2.94642 3.70877e-09 3.36827L0.000336 16.7229C0.000336 16.8758 0.129127 17 0.288237 17L18.7121 16.9996C18.8712 16.9996 19 16.8753 19 16.7224L19 15.7153C19 15.6567 18.9803 15.599 18.9439 15.5514Z" fill="white"/>
</svg>
