<svg width="20" height="20" viewBox="0 0 20 20" fill="none" xmlns="http://www.w3.org/2000/svg">
<path fill-rule="evenodd" clip-rule="evenodd" d="M10 1.04102C6.8975 1.04102 4.375 3.58602 4.375 6.72518C4.375 7.78852 4.84333 9.10768 5.525 10.4235C7.02583 13.321 9.52583 16.2394 9.52583 16.2394C9.64417 16.3777 9.8175 16.4577 10 16.4577C10.1825 16.4577 10.3558 16.3777 10.4742 16.2394C10.4742 16.2394 12.9742 13.321 14.475 10.4235C15.1567 9.10768 15.625 7.78852 15.625 6.72518C15.625 3.58602 13.1025 1.04102 10 1.04102ZM10 4.37435C8.735 4.37435 7.70833 5.40102 7.70833 6.66602C7.70833 7.93102 8.735 8.95768 10 8.95768C11.265 8.95768 12.2917 7.93102 12.2917 6.66602C12.2917 5.40102 11.265 4.37435 10 4.37435Z" fill="black"/>
<path fill-rule="evenodd" clip-rule="evenodd" d="M13.9868 14.4799C14.6643 14.6832 15.2227 14.9349 15.6085 15.2299C15.8585 15.4199 16.0418 15.6057 16.0418 15.8324C16.0418 15.9657 15.966 16.0866 15.8593 16.2074C15.6827 16.4066 15.4202 16.5857 15.0952 16.7524C13.9468 17.3399 12.0902 17.7074 10.0002 17.7074C7.91016 17.7074 6.0535 17.3399 4.90516 16.7524C4.58016 16.5857 4.31766 16.4066 4.141 16.2074C4.03433 16.0866 3.9585 15.9657 3.9585 15.8324C3.9585 15.6057 4.14183 15.4199 4.39183 15.2299C4.77766 14.9349 5.336 14.6832 6.0135 14.4799C6.3435 14.3807 6.531 14.0316 6.43183 13.7015C6.33266 13.3707 5.9835 13.1832 5.6535 13.2824C4.62183 13.5932 3.82016 14.019 3.3385 14.4899C2.91516 14.9024 2.7085 15.364 2.7085 15.8324C2.7085 16.4174 3.03933 17.0007 3.71183 17.4874C4.89183 18.3407 7.26183 18.9574 10.0002 18.9574C12.7385 18.9574 15.1085 18.3407 16.2885 17.4874C16.961 17.0007 17.2918 16.4174 17.2918 15.8324C17.2918 15.364 17.0852 14.9024 16.6618 14.4899C16.1802 14.019 15.3785 13.5932 14.3468 13.2824C14.0168 13.1832 13.6677 13.3707 13.5685 13.7015C13.4693 14.0316 13.6568 14.3807 13.9868 14.4799Z" fill="black"/>
</svg>
