<svg width="1440" height="543" viewBox="0 0 1440 543" fill="none" xmlns="http://www.w3.org/2000/svg">
<g clip-path="url(#clip0_721_788)">
<rect width="1440" height="543" fill="white"/>
<g opacity="0.08">
<path opacity="0.67" d="M-77.5698 47.7886C-77.1638 48.6274 -76.7688 49.4491 -76.3713 50.2306C-72.4138 58.0249 -67.3237 62.2433 -60.8096 63.1272C-55.3269 63.8684 -50.9988 61.5946 -46.8036 59.3964C-45.4576 58.6918 -44.1872 58.0261 -42.8827 57.4579C-36.1137 54.5087 -31.3845 58.4138 -25.9091 62.9309C-24.59 64.0196 -23.2196 65.1083 -21.8127 66.1373C-22.3345 67.1736 -22.9294 68.1917 -23.6244 69.1853C-25.8043 72.3089 -28.6743 74.4644 -31.7039 75.2532C-36.154 76.4151 -41.9878 74.6302 -45.8794 70.9092C-46.8718 69.9595 -48.4519 69.9949 -49.3992 70.9897C-50.3502 71.9833 -50.3148 73.5598 -49.32 74.5095C-45.2759 78.3755 -39.7347 80.5835 -34.5751 80.5835C-33.1572 80.5835 -31.7698 80.4177 -30.447 80.0727C-26.2725 78.9839 -22.4003 76.1298 -19.5425 72.0358C-13.4685 63.3381 -13.4344 53.5114 -13.4015 44.0067C-13.3869 39.6907 -13.371 35.2297 -12.7578 31.0381C-10.9924 18.9536 -3.12983 12.2712 8.96572 12.654C10.5202 12.7064 12.2331 12.8759 14.0461 13.0563C21.043 13.7501 28.9702 14.5389 34.6369 9.45975C37.0948 7.25668 38.5335 4.54032 39.9258 1.91419C41.323 -0.725346 42.6433 -3.21736 44.883 -4.88399C49.2757 -8.15263 55.4875 -8.48303 60.9665 -8.53424C61.342 -8.53789 61.6919 -8.62934 62.0101 -8.78174C61.9894 -8.34161 61.9626 -7.88807 61.9443 -7.46014C61.8675 -5.68744 61.837 -3.95131 61.8078 -2.25421C61.6346 7.96015 61.5078 15.3411 51.8702 20.5775C39.0138 27.5622 27.0877 34.9213 22.4182 48.0726C19.7726 55.5182 20.0628 62.37 23.2802 68.4379C27.3364 76.0883 35.861 81.938 47.2836 84.9104C48.621 85.2518 49.9755 84.4569 50.3218 83.1279C50.6668 81.7978 49.8695 80.4372 48.5393 80.0909C38.6286 77.5124 31.0269 72.4149 27.6815 66.1056C25.1443 61.3216 24.9529 55.8145 27.1109 49.7381C31.1915 38.2484 42.2764 31.4575 54.2476 24.952C66.4382 18.3306 66.6077 8.37223 66.7881 -2.17008C66.8162 -3.8233 66.8454 -5.51553 66.921 -7.24434C67.0637 -10.524 67.2112 -13.9157 68.1841 -16.9539C71.6807 -27.8657 85.61 -35.9855 97.5641 -38.3641C104.199 -39.6869 111.228 -39.3785 117.9 -37.4777C120.915 -36.6182 123.561 -34.8406 126.364 -32.9594C128.896 -31.2587 131.516 -29.4994 134.437 -28.4911C135.722 -28.0522 137.113 -28.7118 137.584 -29.9785C141.298 -40.0002 152.819 -49.8732 173.982 -47.5251C189.827 -45.7682 207.918 -36.1988 210.193 -19.3399C210.45 -17.4221 210.464 -15.8823 210.474 -14.6448C210.529 -8.46718 212.729 -7.4833 220.266 -7.30652C237.952 -6.89321 252.44 6.74828 257.609 20.0094C264.563 37.8534 257.826 57.1349 241.223 66.8957C240.605 67.259 240.175 67.871 240.04 68.5757C239.905 69.2804 240.082 70.0083 240.522 70.574C249.872 82.5452 245.309 93.3216 241.756 98.6799C234.001 110.376 215.406 119.626 197.696 114.859C196.294 114.481 194.909 114.1 193.54 113.726C178.767 109.675 164.811 105.844 148.076 110.368C141.835 112.056 135.441 113.504 129.474 113.035C129.43 113.033 129.39 113.022 129.346 113.022C125.07 112.666 121.016 111.325 117.408 108.34C113.855 105.399 111.772 101.223 109.568 96.8036C106.955 91.5659 104.255 86.1503 98.8771 82.472C96.4461 80.8078 93.8894 79.4277 91.4169 78.0915C87.5875 76.0249 83.9714 74.0718 80.9222 71.2031C76.0576 66.6262 74.1837 58.8356 76.0284 50.8707C77.8766 42.9008 83.018 36.7159 89.4504 34.7286C91.4169 34.1215 93.6115 33.796 95.934 33.4509C100.819 32.7267 106.356 31.9062 110.429 27.9829C122.301 16.5518 138.289 4.57203 156.723 13.5404C159.146 14.7193 161.169 16.3725 163.311 18.1233C166.303 20.5678 169.396 23.0951 173.739 24.4167C177.505 25.5628 181.445 25.7774 185.257 25.9871C192.486 26.3821 198.731 26.7234 202.469 33.0571C205.256 37.7778 205.908 44.5029 204.175 50.6049C202.652 55.9596 199.565 60.0902 195.481 62.2372C191.847 64.144 187.371 63.8136 182.637 63.4624C177.078 63.0516 171.336 62.6261 166.451 65.8825C161.026 69.4986 150.729 74.9448 142.741 70.7946C136.387 67.4967 135.605 62.3737 135.704 59.6135C135.884 54.6575 139.03 49.8953 143.356 48.0324C147.776 46.1329 152.86 47.4143 157.672 51.651C158.706 52.5617 160.279 52.4581 161.187 51.4266C162.097 50.3952 161.996 48.8212 160.964 47.9129C152.408 40.3869 145.027 41.8938 141.387 43.4592C135.263 46.0951 130.98 52.5154 130.728 59.4343C130.487 66.1312 134.029 71.8834 140.447 75.2154C150.719 80.5433 162.878 74.2498 169.215 70.0253C172.677 67.7174 177.336 68.0624 182.271 68.4282C187.497 68.8147 192.903 69.2158 197.797 66.6445C203.101 63.8575 207.068 58.6442 208.966 51.9655C211.092 44.4846 210.268 36.4696 206.759 30.5261C201.667 21.8967 193.092 21.4285 185.531 21.0152C182.015 20.8226 178.38 20.6238 175.19 19.6534C171.787 18.6183 169.201 16.5042 166.464 14.267C164.196 12.4126 161.849 10.4948 158.904 9.06229C137.452 -1.36054 118.999 12.8198 106.979 24.3972C104.053 27.2148 99.755 27.8524 95.205 28.5266C92.7995 28.8826 90.3124 29.252 87.9837 29.9714C79.8639 32.4792 73.4254 40.0565 71.1796 49.7466C68.9351 59.4318 71.3613 69.0427 77.5097 74.8289C81.0343 78.1451 85.1089 80.3457 89.0517 82.4745C91.5206 83.807 93.8517 85.0652 96.0681 86.5807C100.377 89.5299 102.677 94.1421 105.113 99.0249C107.45 103.714 109.869 108.563 114.235 112.175C117.116 114.56 120.201 116.074 123.39 116.984C116.298 121.249 106.147 122.976 99.6586 121.743C92.2569 120.34 85.4027 115.924 78.774 111.656C68.3938 104.968 57.6649 98.0545 43.9905 101.551C40.9328 102.333 38.0397 103.516 35.2416 104.661C32.0096 105.983 28.9567 107.231 25.7186 107.887C16.7746 109.699 8.65848 107.92 3.45377 103.009C2.1468 101.777 1.0471 100.1 -0.118447 98.3251C-2.22886 95.1113 -4.61968 91.4684 -8.87099 89.9213C-15.5875 87.4804 -20.2619 91.5598 -24.0145 94.8419C-24.7338 95.4722 -25.4507 96.1001 -26.1774 96.6804C-29.4667 99.3005 -33.3791 101.069 -37.4939 101.796C-54.2955 104.754 -69.9608 90.7137 -74.8522 76.0079C-76.3616 71.4664 -76.6859 66.3178 -77.0272 60.8668C-77.3954 55.0183 -77.7709 49.0419 -79.6875 43.5958C-78.9279 44.9735 -78.2367 46.4085 -77.5698 47.7886Z" fill="#005571"/>
<path d="M169.085 528.123C169.995 524.41 169.53 520.063 167.81 516.196C162.543 504.341 151.664 503.209 139.066 501.896C131.701 501.131 124.085 500.338 117.368 497.155C111.784 494.508 106.748 490.18 101.876 485.993C93.532 478.818 85.6511 472.046 75.5258 473.385C71.4342 473.929 67.9705 475.686 64.3056 477.548C62.027 478.704 59.6727 479.9 57.0783 480.844C47.3187 484.402 36.2643 484.119 22.2888 479.952L19.8711 479.222C13.8434 477.39 8.14862 475.662 2.1368 475.61C2.05268 475.609 1.96733 475.609 1.88321 475.609C-6.49139 475.609 -14.6624 479.174 -20.5693 485.418C-24.6975 489.78 -28.3002 493.333 -33.9073 496.048C-37.3612 497.72 -41.0541 498.361 -44.6264 498.977C-46.7307 499.342 -48.7192 499.686 -50.5943 500.225C-56.945 502.045 -62.8178 508.023 -65.9219 515.822C-66.996 518.519 -67.6641 521.225 -67.9275 523.818C-67.5142 524.628 -67.591 525.567 -68.0567 526.286C-68.0604 529.712 -67.3081 532.853 -65.8061 535.396C-62.1241 541.623 -58.5105 547.03 -51.5501 550.139C-48.813 551.361 -44.9397 551.954 -40.8396 552.581C-34.6985 553.521 -28.3502 554.492 -24.1915 557.84C-15.4805 564.85 -7.25094 571.472 4.20943 572.421C11.6136 573.039 18.9872 570.05 26.1073 567.163C29.2308 565.895 32.4592 564.586 35.6754 563.583C44.9205 560.704 63.6058 562.553 71.9072 565.04C82.6495 568.261 96.8896 567.957 101.692 556.513C105.514 547.408 101.751 535.46 93.1248 529.31C90.7522 527.617 88.0981 526.299 85.2903 524.902C80.8975 522.72 76.3561 520.463 72.7802 516.611C71.6024 515.343 70.532 513.998 69.4981 512.696C67.6279 510.344 65.8613 508.123 63.607 506.486C56.8808 501.608 47.1651 500.139 36.9605 502.457C33.7016 503.197 31.123 505.121 28.3944 507.157C24.3443 510.182 19.7528 513.614 12.7206 512.603C8.13277 511.945 3.74857 510.226 -0.491764 508.564C-1.42688 508.197 -2.35468 507.832 -3.27517 507.484C-6.1049 506.413 -10.1112 507.066 -13.4712 509.149C-16.3388 510.927 -18.1237 513.376 -18.3724 515.868C-18.6321 518.478 -17.3678 521.397 -14.9038 523.873C-14.0211 524.761 -12.8202 525.356 -11.5498 525.986C-9.21993 527.141 -6.31826 528.578 -5.00642 532.281C-4.15786 534.676 -4.1859 537.02 -4.21273 539.287C-4.23589 541.098 -4.25539 542.808 -3.79942 544.331C-2.92038 547.273 -1.02577 549.885 1.53697 551.683C6.36251 555.071 11.6221 556.899 16.7475 556.968C21.9644 557.08 26.8607 555.117 30.817 551.409C31.2156 551.035 31.607 550.658 31.9971 550.282C35.1195 547.271 38.66 543.854 44.4085 544.185C46.4494 544.297 50.0094 544.163 50.6117 541.922C51.3749 539.092 48.2733 533.583 43.5648 531.191C37.592 528.155 26.8534 526.702 21.6853 532.977C21.1598 533.613 20.922 534.409 21.094 534.957C21.3658 535.827 24.159 536.13 25.3514 536.259L25.7903 536.306C27.1497 536.46 28.1274 537.688 27.9726 539.046C27.819 540.405 26.59 541.38 25.2331 541.23L24.8186 541.183C22.2985 540.91 17.6046 540.402 16.3672 536.433C15.6978 534.29 16.2708 531.758 17.8631 529.825C24.3687 521.923 37.1177 522.355 45.8118 526.772C51.6431 529.736 57.0124 537.216 55.397 543.21C54.7472 545.621 52.4088 549.596 44.1317 549.13C40.6924 548.945 38.6015 550.798 35.4377 553.848C35.0317 554.24 34.6221 554.635 34.2051 555.023C29.2942 559.627 23.2507 562.03 16.6805 561.923C10.5553 561.84 4.33378 559.702 -1.30984 555.738C-4.77721 553.303 -7.34726 549.755 -8.54572 545.752C-9.21627 543.505 -9.19067 541.331 -9.16506 539.229C-9.14312 537.311 -9.11995 535.501 -9.67468 533.936C-10.2855 532.211 -11.5547 531.513 -13.7468 530.426C-15.2512 529.681 -16.9545 528.838 -18.415 527.369C-21.9275 523.839 -23.7075 519.47 -23.2991 515.379C-22.8992 511.342 -20.267 507.537 -16.0815 504.94C-11.3876 502.03 -5.80742 501.227 -1.5232 502.851C-0.583204 503.206 0.364106 503.577 1.31873 503.952C5.29328 505.51 9.4056 507.123 13.4253 507.699C18.4325 508.42 21.6755 505.994 25.4343 503.188C28.3164 501.038 31.5814 498.599 35.8668 497.627C47.4674 494.997 58.6425 496.762 66.5197 502.478C69.3214 504.511 71.383 507.106 73.3776 509.614C74.4005 510.897 75.3649 512.11 76.4121 513.241C79.3748 516.43 83.3188 518.392 87.497 520.467C90.3548 521.887 93.3101 523.356 96.0033 525.278C106.437 532.716 110.942 547.279 106.262 558.431C102.467 567.477 90.8193 575.878 70.4869 569.787C62.6756 567.445 45.2326 565.794 37.1506 568.314C34.1332 569.254 31.1401 570.468 27.9714 571.753C20.3149 574.858 12.4097 578.069 3.801 577.359C-9.17237 576.284 -18.387 568.87 -27.2968 561.699C-30.4179 559.187 -36.0969 558.318 -41.5894 557.478C-46.0309 556.797 -50.2249 556.156 -53.5691 554.663C-61.851 550.964 -66.1011 544.631 -70.0696 537.917C-71.5241 535.457 -72.4385 532.598 -72.8079 529.511C-87.6941 539.801 -89.0999 554.321 -87.4698 565.076C-85.9275 575.249 -79.0696 585.08 -69.5697 590.736C-60.7952 595.961 -51.349 595.087 -41.3455 594.158L-39.179 593.959C-33.2769 593.432 -27.1786 592.962 -21.0229 592.962C-15.322 592.962 -9.57105 593.364 -3.87623 594.495C5.39569 596.333 13.1985 601.323 20.744 606.149C21.9206 606.901 23.0959 607.652 24.2724 608.391C35.6596 615.523 45.2546 617.976 54.4558 616.118C60.8517 614.826 64.8396 611.194 69.4579 606.986C70.877 605.695 72.3425 604.359 73.936 603.044C81.2267 597.018 87.7262 593.427 94.3891 591.739C102.114 589.783 111.079 589.15 120.316 589.909C121.612 590.015 122.881 590.148 124.13 590.279C130.487 590.947 135.98 591.522 141.594 587.988C143.847 586.57 145.525 584.929 146.582 583.111C148.712 579.45 149.181 573.659 147.902 566.806L147.522 564.828C145.981 556.874 144.524 549.36 152.448 542.402C154.532 540.574 156.981 539.152 159.352 537.777C163.96 535.103 167.943 532.793 169.085 528.123Z" fill="url(#paint0_linear_721_788)"/>
<path opacity="0.67" d="M1558.1 570.611C1558.72 568.091 1558.4 565.142 1557.24 562.517C1553.66 554.472 1546.28 553.704 1537.73 552.814C1532.73 552.294 1527.56 551.755 1523.01 549.596C1519.22 547.8 1515.8 544.862 1512.49 542.021C1506.83 537.153 1501.48 532.557 1494.61 533.465C1491.83 533.833 1489.48 535.027 1487 536.29C1485.45 537.075 1483.85 537.886 1482.09 538.527C1475.47 540.942 1467.97 540.75 1458.48 537.921L1456.84 537.426C1452.75 536.184 1448.89 535.01 1444.81 534.976C1444.75 534.975 1444.69 534.975 1444.63 534.975C1438.95 534.975 1433.41 537.395 1429.4 541.63C1426.6 544.59 1424.15 547.001 1420.35 548.844C1418 549.979 1415.5 550.413 1413.07 550.832C1411.65 551.08 1410.3 551.313 1409.02 551.679C1404.71 552.914 1400.73 556.97 1398.62 562.264C1397.89 564.094 1397.44 565.931 1397.26 567.69C1397.54 568.24 1397.49 568.876 1397.17 569.365C1397.17 571.69 1397.68 573.821 1398.7 575.548C1401.2 579.774 1403.65 583.443 1408.37 585.552C1410.23 586.382 1412.86 586.784 1415.64 587.209C1419.81 587.847 1424.12 588.507 1426.94 590.778C1432.85 595.535 1438.44 600.029 1446.21 600.673C1451.24 601.092 1456.24 599.064 1461.08 597.104C1463.2 596.244 1465.39 595.356 1467.57 594.676C1473.84 592.721 1486.52 593.977 1492.16 595.664C1499.45 597.85 1509.11 597.643 1512.37 589.878C1514.96 583.699 1512.41 575.591 1506.56 571.417C1504.95 570.269 1503.14 569.374 1501.24 568.427C1498.26 566.945 1495.18 565.414 1492.75 562.8C1491.95 561.939 1491.22 561.026 1490.52 560.143C1489.25 558.548 1488.05 557.039 1486.52 555.93C1481.96 552.62 1475.37 551.623 1468.44 553.195C1466.23 553.698 1464.48 555.002 1462.63 556.385C1459.88 558.438 1456.76 560.766 1451.99 560.08C1448.88 559.633 1445.9 558.467 1443.02 557.339C1442.39 557.091 1441.76 556.843 1441.14 556.607C1439.22 555.881 1436.5 556.322 1434.22 557.737C1432.27 558.944 1431.06 560.605 1430.89 562.296C1430.71 564.068 1431.57 566.048 1433.24 567.729C1433.84 568.331 1434.66 568.735 1435.52 569.163C1437.1 569.947 1439.07 570.922 1439.96 573.434C1440.54 575.059 1440.52 576.65 1440.5 578.189C1440.48 579.418 1440.47 580.578 1440.78 581.612C1441.38 583.608 1442.66 585.381 1444.4 586.601C1447.68 588.9 1451.25 590.14 1454.72 590.187C1458.26 590.263 1461.58 588.931 1464.27 586.414C1464.54 586.161 1464.81 585.905 1465.07 585.65C1467.19 583.607 1469.59 581.288 1473.49 581.512C1474.88 581.588 1477.29 581.496 1477.7 579.976C1478.22 578.056 1476.12 574.316 1472.92 572.694C1468.87 570.633 1461.58 569.647 1458.07 573.906C1457.72 574.337 1457.55 574.877 1457.67 575.249C1457.86 575.839 1459.75 576.045 1460.56 576.133L1460.86 576.165C1461.78 576.27 1462.44 577.102 1462.34 578.024C1462.23 578.947 1461.4 579.608 1460.48 579.505L1460.2 579.474C1458.49 579.288 1455.3 578.943 1454.46 576.25C1454.01 574.796 1454.4 573.077 1455.48 571.766C1459.89 566.403 1468.54 566.697 1474.45 569.695C1478.4 571.706 1482.05 576.782 1480.95 580.849C1480.51 582.485 1478.92 585.183 1473.3 584.866C1470.97 584.741 1469.55 585.997 1467.4 588.068C1467.13 588.333 1466.85 588.602 1466.57 588.865C1463.24 591.989 1459.13 593.62 1454.68 593.547C1450.52 593.491 1446.3 592.039 1442.47 589.35C1440.11 587.697 1438.37 585.29 1437.56 582.573C1437.1 581.048 1437.12 579.574 1437.14 578.147C1437.15 576.846 1437.17 575.617 1436.79 574.555C1436.38 573.385 1435.51 572.911 1434.03 572.173C1433.01 571.667 1431.85 571.094 1430.86 570.098C1428.48 567.702 1427.27 564.737 1427.54 561.962C1427.82 559.223 1429.6 556.641 1432.44 554.879C1435.63 552.904 1439.42 552.359 1442.32 553.461C1442.96 553.701 1443.6 553.954 1444.25 554.208C1446.95 555.265 1449.74 556.36 1452.47 556.752C1455.86 557.241 1458.07 555.595 1460.62 553.69C1462.57 552.231 1464.79 550.575 1467.7 549.916C1475.57 548.131 1483.15 549.329 1488.5 553.207C1490.4 554.588 1491.8 556.348 1493.15 558.05C1493.85 558.922 1494.5 559.745 1495.21 560.512C1497.22 562.676 1499.9 564.007 1502.73 565.415C1504.67 566.38 1506.68 567.377 1508.51 568.68C1515.59 573.728 1518.65 583.61 1515.47 591.179C1512.89 597.319 1504.99 603.019 1491.19 598.886C1485.89 597.297 1474.05 596.176 1468.57 597.887C1466.52 598.525 1464.49 599.349 1462.34 600.222C1457.14 602.33 1451.78 604.508 1445.94 604.027C1437.13 603.297 1430.88 598.265 1424.83 593.399C1422.72 591.695 1418.86 591.105 1415.14 590.535C1412.12 590.074 1409.27 589.638 1407.01 588.625C1401.39 586.115 1398.5 581.817 1395.81 577.261C1394.82 575.592 1394.2 573.651 1393.95 571.556C1383.85 578.54 1382.89 588.393 1384 595.691C1385.05 602.594 1389.7 609.267 1396.15 613.105C1402.1 616.652 1408.51 616.058 1415.3 615.427L1416.77 615.293C1420.78 614.935 1424.92 614.617 1429.09 614.617C1432.96 614.617 1436.86 614.89 1440.73 615.657C1447.02 616.905 1452.32 620.291 1457.44 623.566C1458.23 624.076 1459.03 624.585 1459.83 625.087C1467.56 629.927 1474.07 631.591 1480.31 630.331C1484.65 629.454 1487.36 626.989 1490.49 624.134C1491.46 623.257 1492.45 622.351 1493.53 621.458C1498.48 617.37 1502.89 614.931 1507.41 613.786C1512.65 612.459 1518.74 612.028 1525.01 612.544C1525.89 612.616 1526.75 612.706 1527.6 612.795C1531.91 613.249 1535.64 613.64 1539.45 611.241C1540.98 610.279 1542.11 609.165 1542.83 607.931C1544.28 605.446 1544.6 601.517 1543.73 596.865L1543.47 595.523C1542.42 590.126 1541.44 585.027 1546.81 580.304C1548.23 579.063 1549.89 578.098 1551.5 577.164C1554.62 575.348 1557.33 573.78 1558.1 570.611Z" fill="#005571"/>
<path opacity="0.67" d="M131.643 233.218C132.287 230.588 131.958 227.51 130.74 224.771C127.01 216.376 119.306 215.574 110.384 214.645C105.168 214.102 99.7747 213.542 95.0174 211.287C91.0624 209.413 87.4963 206.347 84.046 203.382C78.1366 198.302 72.5563 193.504 65.3851 194.453C62.4871 194.838 60.0341 196.083 57.4384 197.401C55.8242 198.22 54.1576 199.066 52.3203 199.735C45.4087 202.256 37.5803 202.056 27.6829 199.104L25.9712 198.587C21.7016 197.29 17.6697 196.066 13.4123 196.029C13.3526 196.029 13.2929 196.029 13.2331 196.029C7.30298 196.029 1.5155 198.554 -2.66753 202.975C-5.59114 206.064 -8.1429 208.579 -12.1138 210.503C-14.5595 211.688 -17.1759 212.141 -19.7045 212.578C-21.1943 212.837 -22.6025 213.079 -23.9314 213.461C-28.429 214.751 -32.5876 218.984 -34.787 224.507C-35.5478 226.417 -36.0208 228.334 -36.2074 230.17C-35.9148 230.743 -35.9684 231.409 -36.2988 231.918C-36.3013 234.345 -35.7685 236.568 -34.7041 238.37C-32.0963 242.78 -29.5372 246.61 -24.608 248.811C-22.6695 249.677 -19.9263 250.096 -17.0222 250.541C-12.6734 251.207 -8.17704 251.895 -5.23148 254.266C0.937606 259.231 6.76532 263.92 14.8827 264.593C20.1252 265.03 25.3482 262.914 30.3907 260.868C32.6023 259.971 34.8895 259.043 37.167 258.333C43.714 256.294 56.9471 257.603 62.826 259.365C70.4337 261.646 80.5189 261.43 83.9192 253.326C86.6258 246.878 83.9606 238.417 77.8513 234.06C76.1712 232.862 74.2912 231.928 72.3028 230.939C69.1914 229.393 65.9764 227.795 63.4429 225.068C62.609 224.169 61.8507 223.217 61.1191 222.295C59.7939 220.63 58.5442 219.057 56.9471 217.898C52.1837 214.443 45.3026 213.403 38.0753 215.045C35.7674 215.569 33.941 216.931 32.0086 218.373C29.1399 220.515 25.8883 222.946 20.9079 222.229C17.6588 221.763 14.5535 220.546 11.5506 219.369C10.8886 219.11 10.2315 218.851 9.57921 218.605C7.57487 217.847 4.73782 218.309 2.35796 219.785C0.328015 221.044 -0.936283 222.778 -1.11306 224.544C-1.29716 226.392 -0.40106 228.46 1.3436 230.213C1.96782 230.841 2.81881 231.262 3.71857 231.709C5.36935 232.527 7.42369 233.544 8.35271 236.166C8.95377 237.862 8.93426 239.522 8.91475 241.128C8.8989 242.409 8.88549 243.621 9.20736 244.7C9.83036 246.784 11.1715 248.633 12.9868 249.906C16.4042 252.306 20.1288 253.599 23.7584 253.649C27.4525 253.73 30.9199 252.339 33.7228 249.712C34.0044 249.448 34.2824 249.181 34.5591 248.914C36.7695 246.781 39.2786 244.361 43.3483 244.595C44.7942 244.675 47.3143 244.58 47.7422 242.992C48.2823 240.988 46.0866 237.087 42.7521 235.392C38.5215 233.242 30.9174 232.212 27.2562 236.657C26.8844 237.108 26.7161 237.672 26.8368 238.059C27.0294 238.675 29.0082 238.89 29.8519 238.982L30.1628 239.016C31.1259 239.125 31.8172 239.994 31.7075 240.957C31.599 241.921 30.7284 242.609 29.7677 242.503L29.4739 242.47C27.689 242.277 24.3655 241.917 23.4889 239.107C23.0147 237.589 23.4206 235.795 24.5484 234.427C29.1557 228.831 38.185 229.137 44.3407 232.266C48.4701 234.365 52.2727 239.661 51.1291 243.907C50.6695 245.615 49.0126 248.43 43.1508 248.099C40.7148 247.968 39.2347 249.281 36.9939 251.44C36.7061 251.718 36.416 251.997 36.1209 252.273C32.6438 255.533 28.3632 257.235 23.7108 257.158C19.3729 257.099 14.9668 255.585 10.9703 252.779C8.51486 251.054 6.69461 248.542 5.84606 245.706C5.37057 244.115 5.38886 242.575 5.40715 241.087C5.423 239.728 5.43885 238.446 5.04627 237.339C4.61346 236.117 3.71492 235.622 2.16289 234.853C1.09732 234.325 -0.108456 233.728 -1.14355 232.688C-3.63069 230.188 -4.89133 227.093 -4.60238 224.197C-4.31953 221.338 -2.45539 218.644 0.509671 216.805C3.83439 214.745 7.78578 214.176 10.8203 215.326C11.486 215.578 12.1566 215.841 12.8332 216.106C15.6483 217.209 18.561 218.351 21.4065 218.76C24.9532 219.269 27.2489 217.553 29.9116 215.565C31.9525 214.041 34.2653 212.315 37.2999 211.626C45.516 209.763 53.4285 211.014 59.0075 215.062C60.9911 216.502 62.4517 218.339 63.8647 220.115C64.5889 221.025 65.2717 221.884 66.0142 222.684C68.1124 224.942 70.9056 226.332 73.8645 227.801C75.8884 228.807 77.9817 229.848 79.8885 231.208C87.278 236.476 90.4686 246.789 87.1524 254.687C84.4654 261.094 76.2163 267.042 61.8177 262.728C56.2851 261.07 43.9335 259.901 38.2094 261.686C36.0722 262.352 33.9532 263.211 31.7087 264.122C26.2857 266.321 20.6884 268.595 14.5913 268.093C5.40349 267.331 -1.1216 262.081 -7.43212 257.002C-9.6425 255.223 -13.6646 254.607 -17.5538 254.012C-20.6993 253.531 -23.6693 253.076 -26.0381 252.018C-31.9036 249.399 -34.9126 244.914 -37.724 240.159C-38.7543 238.417 -39.4016 236.392 -39.6626 234.206C-50.2049 241.493 -51.2009 251.776 -50.0464 259.393C-48.954 266.597 -44.098 273.56 -37.3693 277.565C-31.1551 281.265 -24.4654 280.646 -17.3819 279.988L-15.8482 279.848C-11.6688 279.474 -7.34921 279.142 -2.9894 279.142C1.04733 279.142 5.12064 279.428 9.15371 280.227C15.7203 281.53 21.2456 285.063 26.5893 288.481C27.4232 289.014 28.2547 289.546 29.0886 290.069C37.1523 295.12 43.9481 296.856 50.4647 295.54C54.9939 294.625 57.8188 292.052 61.0887 289.074C62.0933 288.16 63.132 287.213 64.2598 286.282C69.423 282.015 74.0255 279.472 78.7449 278.277C84.2154 276.891 90.5637 276.443 97.1071 276.981C98.0252 277.056 98.9237 277.15 99.8076 277.243C104.31 277.716 108.201 278.124 112.175 275.62C113.771 274.616 114.96 273.454 115.708 272.166C117.218 269.573 117.548 265.472 116.642 260.619L116.374 259.218C115.282 253.586 114.25 248.264 119.862 243.337C121.337 242.043 123.072 241.035 124.751 240.061C128.014 238.161 130.835 236.524 131.643 233.218Z" fill="#005571"/>
<path opacity="0.67" d="M495.942 -31.239C496.586 -33.8688 496.258 -36.9473 495.039 -39.6855C491.309 -48.0809 483.605 -48.8831 474.683 -49.8121C469.468 -50.3547 464.074 -50.9155 459.317 -53.1698C455.362 -55.0436 451.796 -58.1099 448.345 -61.075C442.436 -66.1553 436.856 -70.9528 429.684 -70.0043C426.788 -69.619 424.333 -68.3742 421.738 -67.0563C420.125 -66.237 418.457 -65.3909 416.62 -64.7216C409.708 -62.2015 401.88 -62.4014 391.982 -65.3531L390.271 -65.87C386.002 -67.1672 381.969 -68.3913 377.712 -68.4279C377.652 -68.4279 377.592 -68.4279 377.532 -68.4279C371.602 -68.4279 365.815 -65.903 361.632 -61.4822C358.708 -58.3928 356.156 -55.8776 352.186 -53.9537C349.74 -52.7686 347.125 -52.3163 344.595 -51.8786C343.105 -51.6202 341.697 -51.3776 340.368 -50.9959C335.87 -49.706 331.712 -45.4742 329.512 -39.9501C328.752 -38.0396 328.278 -36.1231 328.092 -34.287C328.385 -33.714 328.331 -33.0483 328 -32.5387C327.998 -30.1125 328.531 -27.8887 329.595 -26.0867C332.203 -21.6769 334.762 -17.8475 339.691 -15.6456C341.63 -14.78 344.373 -14.3606 347.277 -13.9156C351.626 -13.2499 356.122 -12.5623 359.068 -10.191C365.237 -5.22643 371.065 -0.53744 379.182 0.135551C384.424 0.57324 389.647 -1.54327 394.69 -3.58907C396.903 -4.48639 399.189 -5.41419 401.466 -6.12376C408.013 -8.16224 421.246 -6.85405 427.125 -5.09232C434.733 -2.81122 444.818 -3.02702 448.218 -11.131C450.925 -17.5792 448.26 -26.0404 442.151 -30.3966C440.471 -31.595 438.591 -32.5289 436.602 -33.5177C433.491 -35.0636 430.276 -36.662 427.742 -39.3893C426.908 -40.2878 426.15 -41.24 425.418 -42.1617C424.093 -43.8271 422.844 -45.4011 421.246 -46.5593C416.483 -50.0145 409.602 -51.0545 402.375 -49.4122C400.067 -48.888 398.24 -47.5261 396.308 -46.0838C393.439 -43.9417 390.188 -41.5107 385.207 -42.2276C381.958 -42.6945 378.853 -43.9112 375.85 -45.0878C375.188 -45.3475 374.531 -45.6059 373.879 -45.8522C371.874 -46.6093 369.037 -46.1485 366.657 -44.672C364.627 -43.4126 363.363 -41.6789 363.186 -39.9135C363.002 -38.064 363.898 -35.9975 365.643 -34.2443C366.267 -33.6164 367.118 -33.1946 368.019 -32.7484C369.669 -31.9303 371.724 -30.9135 372.653 -28.291C373.254 -26.5951 373.235 -24.9346 373.215 -23.3289C373.199 -22.0476 373.186 -20.8357 373.508 -19.7567C374.13 -17.6731 375.472 -15.8236 377.287 -14.5508C380.705 -12.1514 384.429 -10.8579 388.059 -10.8079C391.753 -10.7274 395.22 -12.1185 398.023 -14.7446C398.306 -15.0092 398.583 -15.2762 398.86 -15.5432C401.071 -17.6756 403.579 -20.0956 407.649 -19.8616C409.095 -19.7823 411.615 -19.8774 412.042 -21.4648C412.582 -23.4691 410.386 -27.3705 407.051 -29.064C402.821 -31.2134 395.217 -32.2436 391.556 -27.7997C391.184 -27.3486 391.015 -26.7853 391.136 -26.3976C391.329 -25.7819 393.307 -25.5674 394.151 -25.4759L394.462 -25.4418C395.425 -25.3333 396.116 -24.464 396.007 -23.5008C395.898 -22.5377 395.028 -21.8488 394.066 -21.9549L393.772 -21.9878C391.987 -22.1817 388.664 -22.5413 387.787 -25.3516C387.313 -26.8694 387.719 -28.6629 388.846 -30.0308C393.454 -35.6269 402.483 -35.3209 408.639 -32.1924C412.768 -30.093 416.572 -24.7968 415.427 -20.5516C414.966 -18.8435 413.311 -16.0297 407.449 -16.3588C405.013 -16.4905 403.533 -15.1774 401.292 -13.0183C401.004 -12.7403 400.714 -12.4611 400.419 -12.1856C396.942 -8.92545 392.661 -7.22346 388.009 -7.30027C383.671 -7.35879 379.266 -8.87302 375.268 -11.6796C372.813 -13.4047 370.993 -15.9163 370.144 -18.7521C369.669 -20.3431 369.687 -21.883 369.705 -23.3716C369.721 -24.7298 369.737 -26.0124 369.344 -27.1194C368.912 -28.341 368.013 -28.836 366.461 -29.6053C365.395 -30.1332 364.19 -30.7306 363.155 -31.7706C360.667 -34.2711 359.407 -37.3654 359.696 -40.261C359.979 -43.12 361.843 -45.8144 364.808 -47.6529C368.132 -49.7134 372.084 -50.2827 375.118 -49.133C375.784 -48.8819 376.455 -48.6185 377.131 -48.354C379.946 -47.2506 382.859 -46.1082 385.705 -45.6998C389.251 -45.1902 391.547 -46.908 394.21 -48.8941C396.251 -50.4181 398.563 -52.1444 401.598 -52.8333C409.814 -54.6962 417.727 -53.4453 423.306 -49.3976C425.289 -47.9577 426.75 -46.1204 428.163 -44.3441C428.887 -43.4345 429.57 -42.575 430.312 -41.7752C432.41 -39.5173 435.204 -38.1274 438.163 -36.6583C440.186 -35.6525 442.28 -34.6113 444.187 -33.2519C451.575 -27.9838 454.767 -17.6707 451.451 -9.77278C448.763 -3.36595 440.514 2.58246 426.116 -1.73102C420.583 -3.38912 408.232 -4.55832 402.507 -2.77343C400.37 -2.10775 398.251 -1.24822 396.007 -0.337489C390.584 1.86192 384.987 4.13571 378.889 3.6334C369.702 2.87141 363.177 -2.37841 356.866 -7.45755C354.656 -9.23634 350.634 -9.85203 346.744 -10.447C343.599 -10.9286 340.629 -11.3833 338.26 -12.4416C332.394 -15.0604 329.385 -19.5458 326.574 -24.3006C325.544 -26.0428 324.896 -28.0679 324.634 -30.2539C314.092 -22.9668 313.096 -12.6842 314.251 -5.06672C315.342 2.13746 320.199 9.10023 326.928 13.1053C333.142 16.8055 339.831 16.1862 346.916 15.529L348.45 15.3888C352.629 15.0145 356.949 14.6829 361.309 14.6829C365.345 14.6829 369.419 14.9682 373.452 15.768C380.018 17.0701 385.544 20.6033 390.887 24.0219C391.721 24.5547 392.553 25.0862 393.386 25.6093C401.449 30.6603 408.245 32.3965 414.762 31.081C419.291 30.1654 422.116 27.5929 425.386 24.6144C426.39 23.7 427.429 22.7539 428.557 21.8225C433.72 17.5553 438.322 15.0121 443.041 13.8173C448.511 12.4311 454.859 11.9836 461.403 12.5213C462.321 12.5969 463.219 12.6907 464.103 12.7834C468.606 13.2564 472.496 13.6649 476.471 11.1607C478.067 10.1561 479.255 8.99417 480.004 7.70671C481.512 5.1135 481.844 1.01215 480.938 -3.84022L480.67 -5.24106C479.578 -10.8737 478.547 -16.1955 484.158 -21.1234C485.633 -22.4182 487.368 -23.4252 489.047 -24.3994C492.313 -26.2964 495.134 -27.9326 495.942 -31.239Z" fill="#005571"/>
<path opacity="0.67" d="M51.3594 373.469C51.7471 373.479 52.1384 373.453 52.5395 373.418C55.5192 373.156 58.3441 372.133 61.3335 371.049C64.0633 370.06 66.8857 369.037 69.8898 368.615C77.7987 367.504 85.087 369.894 89.8808 375.166C93.9346 379.625 96.2511 385.218 98.4919 390.627C98.9747 391.795 99.4551 392.955 99.9501 394.094C101.981 398.772 104.909 404.688 109.556 408.938C113.417 412.47 118.339 415.437 123.79 417.518C133.661 421.288 145.994 421.726 151.004 411.655C152.81 408.022 153.049 403.533 151.642 399.647C150.813 397.359 149.047 394.287 145.337 392.654C141.638 391.024 136.906 391.718 133.831 394.342C132.054 395.858 131.361 398.359 132.07 400.713C132.746 402.96 134.488 404.474 136.742 404.779C137.128 404.763 138.123 404.599 138.828 404.416C138.863 404.327 138.904 404.24 138.954 404.157C139.43 403.364 140.458 403.106 141.254 403.582C142.322 404.222 142.43 405.237 142.197 405.913C141.459 408.063 136.442 408.128 136.407 408.116C132.815 407.676 129.923 405.209 128.861 401.68C127.77 398.053 128.867 394.173 131.656 391.795C135.739 388.314 141.778 387.428 146.686 389.59C150.427 391.237 153.305 394.405 154.793 398.51C156.505 403.24 156.208 408.713 154.002 413.151C151.232 418.725 146.311 422.154 139.777 423.067C139.482 423.108 139.175 423.125 138.874 423.156C141.11 426.312 143.818 427.4 148.124 428.273C151.405 428.942 154.629 428.089 158.042 427.188C160.624 426.506 163.295 425.8 166.103 425.744C171.435 425.63 176.856 426.806 181.656 427.837C187.166 429.021 191.535 429.29 195.398 428.688C201.622 427.718 206.697 423.3 209.8 419.865C202.645 420.415 195.444 419.192 191.001 414.682L190.521 414.195C187.304 410.92 184.526 408.093 180.115 407.067C178.283 406.642 176.404 406.665 174.414 406.693C171.811 406.728 169.115 406.765 166.354 405.764C158.108 402.773 152.568 394.579 152.57 385.373C152.571 377.763 157.527 370.936 164.621 368.773C169.29 367.347 173.511 368.752 177.589 370.111C180.926 371.225 184.079 372.277 187.363 371.773C189.123 371.505 190.808 371.073 192.436 370.656C196.817 369.535 201.349 368.374 206.717 370.709C211.769 372.905 215.282 377.172 215.884 381.842C216.698 388.143 211.752 393.761 206.444 396.053C202.562 397.731 198.25 397.908 194.913 396.523C192.347 395.46 190.447 393.52 189.415 390.913C189.075 390.052 189.496 389.08 190.357 388.738C191.212 388.399 192.189 388.819 192.53 389.679C193.23 391.447 194.463 392.709 196.195 393.427C198.674 394.454 202.092 394.282 205.115 392.977C209.271 391.183 213.161 386.929 212.56 382.272C212.019 378.078 208.496 375.136 205.381 373.781C201.065 371.906 197.45 372.831 193.265 373.902C191.557 374.338 189.791 374.791 187.868 375.086C183.79 375.71 180.095 374.48 176.528 373.29C172.784 372.041 169.249 370.864 165.597 371.977C159.991 373.686 155.922 379.321 155.921 385.373C155.918 393.174 160.569 400.101 167.496 402.612C169.678 403.404 171.95 403.372 174.369 403.342C176.468 403.314 178.644 403.283 180.874 403.802C186.233 405.048 189.476 408.35 192.909 411.845L193.386 412.329C200.188 419.234 215.741 416.711 224.111 412.833C231.716 409.309 235.553 401.064 238.045 394.276C241.884 383.821 240.159 371.159 233.546 361.23C230.308 356.366 226.087 352.459 221.342 349.927C218.066 348.179 214.423 347.171 210.516 346.931C209.013 346.838 207.471 346.947 205.84 347.061C203.408 347.233 200.893 347.411 198.375 346.897C195.512 346.313 192.99 344.983 190.55 343.695C188.629 342.682 186.815 341.725 184.884 341.131C180.219 339.698 175.42 339.142 170.602 339.471C164.077 339.921 157.974 341.76 152.951 344.793C148.588 347.427 145.404 351.341 142.033 355.485C139.298 358.847 136.468 362.324 132.936 365.082C128.027 368.915 121.454 370.594 115.357 369.579C110.216 368.72 106.808 365.47 103.511 362.327C102.519 361.38 101.491 360.401 100.445 359.52C95.2587 355.158 88.9116 352.809 82.5767 352.925C77.0233 353.021 72.0014 355.197 67.221 359.578C65.8189 360.861 64.4559 362.421 63.0111 364.07C59.7669 367.779 56.1764 371.883 51.3594 373.469ZM112.938 377.027C113.258 376.157 114.224 375.714 115.09 376.035C124.614 379.554 135.604 376.427 144.491 367.673L144.708 367.46C151.848 360.425 160.542 351.859 171.47 351.859C172.823 351.859 174.212 351.991 175.637 352.273C177.92 352.726 180.068 353.577 182.146 354.399C184.854 355.47 187.415 356.483 190.082 356.582C191.006 356.616 191.728 357.394 191.695 358.318C191.66 359.242 190.892 359.954 189.959 359.931C186.717 359.812 183.767 358.644 180.914 357.515C178.886 356.713 176.971 355.954 174.986 355.56C163.814 353.344 154.912 362.112 147.061 369.848L146.844 370.061C137.007 379.749 124.707 383.158 113.931 379.18C113.061 378.858 112.617 377.893 112.938 377.027Z" fill="#005571"/>
<path d="M1048.65 -21.9665C1046.15 -23.4173 1043.56 -24.9169 1041.37 -26.8396C1033.07 -34.1315 1034.6 -42.0294 1036.22 -50.393C1036.36 -51.0794 1036.49 -51.778 1036.62 -52.4852C1037.98 -59.7844 1037.48 -65.9584 1035.2 -69.8732C1034.07 -71.8227 1032.27 -73.582 1029.86 -75.0999C1023.87 -78.872 1018.03 -78.26 1011.26 -77.5517C1009.94 -77.4139 1008.6 -77.2725 1007.23 -77.1603C997.469 -76.3617 988.003 -77.0286 979.852 -79.0927C972.828 -80.8703 965.975 -84.6595 958.283 -91.0164C956.601 -92.4062 955.051 -93.8168 953.551 -95.1823C948.644 -99.6531 944.405 -103.513 937.585 -104.891C927.79 -106.869 917.595 -104.263 905.504 -96.688C904.257 -95.9065 903.014 -95.1116 901.768 -94.3155C893.799 -89.2181 885.557 -83.9487 875.779 -82.009C863.267 -79.5267 850.489 -80.3716 838.474 -81.447L836.178 -81.6579C825.56 -82.6393 815.535 -83.5684 806.198 -78.0089C796.099 -71.9946 788.805 -61.5376 787.165 -50.7173C785.422 -39.2192 786.946 -23.6709 803.023 -12.7177C803.387 -16.0778 804.357 -19.1892 805.932 -21.8531C810.116 -28.9305 814.593 -35.6055 823.307 -39.4972C826.824 -41.0675 831.251 -41.7453 835.936 -42.4622C841.774 -43.3559 847.81 -44.28 851.152 -46.9696C860.558 -54.5383 870.283 -62.3667 883.955 -63.5005C893.02 -64.254 901.363 -60.8598 909.445 -57.5814C912.801 -56.2195 915.971 -54.9333 919.173 -53.936C927.757 -51.2599 946.27 -53.0082 954.562 -55.4941C961.868 -57.6838 969.339 -58.1446 975.597 -56.7938C983.547 -55.0772 989.285 -50.5101 992.19 -43.5863C997.111 -31.8638 992.37 -16.5533 981.399 -8.73097C978.562 -6.70834 975.441 -5.15631 972.423 -3.65671C967.985 -1.4512 963.795 0.631172 960.637 4.03149C959.523 5.23117 958.5 6.51741 957.417 7.87924C955.313 10.5237 953.139 13.2607 950.195 15.3967C941.898 21.4147 930.133 23.2727 917.91 20.499C913.416 19.4786 910.124 17.0219 906.942 14.6457C902.93 11.6514 899.457 9.06428 894.094 9.83603C889.815 10.4505 885.451 12.1622 881.23 13.8167C880.225 14.2117 879.227 14.6031 878.236 14.9773C873.757 16.6745 867.915 15.8332 862.996 12.7828C858.616 10.0665 855.864 6.09312 855.447 1.87961C855.022 -2.39242 856.887 -6.96071 860.563 -10.6549C862.086 -12.1862 863.874 -13.0713 865.452 -13.854C867.815 -15.0244 869.184 -15.7791 869.855 -17.6749C870.453 -19.3611 870.431 -21.2947 870.405 -23.3417C870.38 -25.5521 870.352 -27.8381 871.054 -30.1874C872.307 -34.3839 875 -38.1012 878.637 -40.6542C884.58 -44.825 891.125 -47.0769 897.568 -47.1634C904.458 -47.2549 910.818 -44.7506 915.98 -39.9141C916.42 -39.502 916.853 -39.0839 917.283 -38.6693C920.332 -35.7287 922.732 -33.4134 926.623 -33.6256C935.247 -34.1181 937.679 -29.9985 938.352 -27.5028C940.038 -21.2471 934.411 -13.4309 928.306 -10.3281C919.173 -5.68666 905.785 -5.22337 898.962 -13.5102C897.318 -15.5048 896.725 -18.1163 897.414 -20.323C898.688 -24.4024 903.573 -24.9328 906.197 -25.2168L906.636 -25.2656C907.955 -25.4241 909.173 -24.4585 909.324 -23.1235C909.475 -21.7897 908.517 -20.5863 907.183 -20.4352L906.72 -20.384C905.311 -20.2316 902.377 -19.9134 902.054 -18.8734C901.854 -18.2345 902.12 -17.3214 902.714 -16.5996C907.738 -10.4988 918.55 -10.8207 926.103 -14.6611C931.16 -17.2299 934.483 -23.1735 933.658 -26.2373C933.018 -28.611 929.635 -28.9219 926.896 -28.772C920.876 -28.4367 917.182 -32.0126 913.908 -35.1691C913.495 -35.5677 913.078 -35.9688 912.655 -36.3651C908.429 -40.325 903.222 -42.3781 897.635 -42.3013C892.174 -42.2269 886.569 -40.2811 881.43 -36.6723C878.685 -34.7448 876.654 -31.9467 875.712 -28.7927C875.222 -27.1529 875.243 -25.329 875.267 -23.3978C875.295 -21.0155 875.326 -18.5515 874.437 -16.0485C873.074 -12.2032 870.043 -10.7024 867.61 -9.49662C866.249 -8.82241 864.964 -8.18599 864.009 -7.22527C861.36 -4.56379 860.003 -1.42073 860.282 1.40047C860.551 4.09732 862.473 6.74051 865.557 8.65342C869.159 10.8882 873.461 11.5868 876.516 10.4322C877.488 10.0652 878.468 9.67997 879.454 9.29349C883.933 7.53664 888.565 5.72005 893.402 5.02634C900.776 3.96442 905.589 7.57322 909.847 10.7516C912.751 12.9194 915.495 14.9676 918.984 15.7601C929.843 18.224 940.178 16.6586 947.337 11.4636C949.745 9.71655 951.623 7.3562 953.609 4.85565C954.701 3.48285 955.829 2.06249 957.071 0.725043C960.834 -3.3251 965.624 -5.70616 970.256 -8.00799C973.235 -9.4893 976.049 -10.8877 978.573 -12.686C987.77 -19.244 991.78 -31.9894 987.703 -41.7027C982.569 -53.9299 967.39 -54.264 955.952 -50.8356C947.189 -48.2095 927.472 -46.2551 917.722 -49.2933C914.327 -50.3516 910.913 -51.7366 907.611 -53.0765C900.058 -56.1403 892.252 -59.3065 884.352 -58.6555C872.165 -57.6448 863.435 -50.6198 854.194 -43.1828C849.833 -39.6727 843.139 -38.6486 836.666 -37.6586C832.312 -36.993 828.201 -36.3626 825.281 -35.0605C817.864 -31.748 814.023 -25.9995 810.109 -19.3818C808.492 -16.6472 807.69 -13.2688 807.702 -9.58684C808.194 -8.86143 808.275 -7.89339 807.833 -7.07166C808.11 -4.29191 808.823 -1.39025 809.974 1.50045C813.28 9.80677 819.543 16.1746 826.317 18.1168C828.313 18.6898 830.421 19.0543 832.653 19.4408C836.419 20.0931 840.313 20.7661 843.948 22.5253C849.851 25.3843 853.651 29.1309 858.006 33.7345C864.292 40.3779 872.989 44.172 881.903 44.172C881.994 44.172 882.084 44.172 882.174 44.1708C888.564 44.1159 894.6 42.2835 900.994 40.3413C901.847 40.0829 902.699 39.8232 903.554 39.5684C911.492 37.2019 918.538 36.0217 924.955 36.0217C930.459 36.0217 935.499 36.8886 940.249 38.6198C942.984 39.6159 945.471 40.879 947.877 42.0994C951.771 44.0769 955.451 45.9435 959.812 46.5238C970.594 47.9539 978.981 40.7583 987.847 33.1371C992.992 28.7151 998.312 24.142 1004.2 21.3525C1011.28 17.9997 1019.32 17.1621 1027.1 16.3526C1040.49 14.9591 1052.05 13.7557 1057.67 1.10909C1059.51 -3.02152 1060 -7.66662 1059.03 -11.6363C1057.81 -16.6484 1053.36 -19.2318 1048.65 -21.9665Z" fill="url(#paint1_linear_721_788)"/>
<path d="M1569.73 346.355C1567.45 345.029 1565.08 343.659 1563.07 341.894C1555.42 335.175 1556.83 327.926 1558.31 320.251C1558.44 319.625 1558.56 318.99 1558.68 318.345C1559.91 311.752 1559.46 306.183 1557.41 302.665C1556.4 300.921 1554.79 299.345 1552.62 297.982C1547.23 294.589 1541.95 295.142 1535.83 295.782C1534.63 295.909 1533.4 296.037 1532.15 296.14C1523.24 296.87 1514.6 296.259 1507.16 294.375C1500.73 292.749 1494.47 289.286 1487.44 283.477C1485.9 282.209 1484.49 280.922 1483.12 279.677C1478.68 275.629 1474.84 272.133 1468.69 270.891C1459.83 269.102 1450.6 271.466 1439.65 278.33C1438.51 279.04 1437.38 279.763 1436.25 280.488C1428.98 285.139 1421.46 289.95 1412.51 291.722C1401.1 293.985 1389.45 293.218 1378.49 292.237L1376.4 292.045C1366.77 291.153 1357.68 290.312 1349.24 295.337C1340.1 300.779 1333.5 310.239 1332.02 320.027C1330.45 330.36 1331.8 344.305 1346.06 354.203C1346.43 351.252 1347.3 348.516 1348.7 346.16C1352.53 339.685 1356.62 333.578 1364.61 330.01C1367.84 328.567 1371.89 327.949 1376.17 327.295C1381.45 326.486 1386.92 325.649 1389.92 323.237C1398.5 316.326 1407.38 309.179 1419.9 308.142C1428.19 307.461 1435.82 310.552 1443.2 313.546C1446.25 314.783 1449.14 315.953 1452.04 316.858C1459.82 319.283 1476.61 317.694 1484.13 315.439C1503.75 309.563 1514.99 317.673 1518.65 326.405C1523.17 337.166 1518.82 351.219 1508.75 358.397C1506.16 360.248 1503.31 361.665 1500.55 363.034C1496.53 365.032 1492.73 366.921 1489.89 369.987C1488.88 371.073 1487.95 372.241 1486.97 373.476C1485.04 375.895 1483.05 378.398 1480.35 380.361C1472.74 385.877 1461.97 387.582 1450.78 385.041C1446.64 384.103 1443.49 381.751 1440.71 379.676C1437.1 376.979 1433.97 374.65 1429.18 375.338C1425.31 375.894 1421.35 377.447 1417.52 378.95C1416.6 379.309 1415.69 379.666 1414.79 380.007C1410.65 381.574 1405.26 380.802 1400.72 377.991C1396.68 375.483 1394.14 371.805 1393.75 367.901C1393.36 363.95 1395.08 359.726 1398.47 356.316C1399.88 354.896 1401.52 354.081 1402.98 353.362C1405.08 352.321 1406.29 351.653 1406.88 350.006C1407.41 348.507 1407.39 346.766 1407.36 344.923C1407.34 342.894 1407.31 340.797 1407.96 338.626C1409.12 334.757 1411.6 331.333 1414.95 328.981C1420.4 325.157 1426.4 323.095 1432.31 323.015C1438.68 322.917 1444.48 325.232 1449.22 329.672C1449.62 330.049 1450.01 330.428 1450.41 330.806C1453.45 333.737 1455.5 335.522 1458.75 335.339C1466.78 334.88 1469.02 338.738 1469.65 341.074C1471.21 346.87 1466.02 354.097 1460.39 356.96C1452 361.225 1439.69 361.637 1433.41 354.008C1431.87 352.136 1431.31 349.681 1431.96 347.603C1433.16 343.751 1437.7 343.259 1440.14 342.994L1440.54 342.95C1441.85 342.789 1443.08 343.757 1443.23 345.091C1443.38 346.425 1442.42 347.629 1441.09 347.781L1440.66 347.827C1439.62 347.94 1436.85 348.24 1436.6 349.051C1436.44 349.566 1436.67 350.315 1437.16 350.918C1442.12 356.945 1452.44 355.546 1458.19 352.627C1462.7 350.331 1465.68 345.051 1464.95 342.339C1464.38 340.212 1460.99 340.079 1459.02 340.192C1453.45 340.515 1450.05 337.213 1447.03 334.306C1446.66 333.944 1446.28 333.581 1445.89 333.22C1442.09 329.656 1437.41 327.816 1432.37 327.875C1427.44 327.942 1422.38 329.7 1417.74 332.96C1415.28 334.685 1413.46 337.193 1412.62 340.018C1412.18 341.48 1412.2 343.123 1412.22 344.864C1412.25 347.052 1412.28 349.314 1411.46 351.628C1410.19 355.213 1407.38 356.601 1405.13 357.717C1403.91 358.323 1402.76 358.894 1401.91 359.743C1399.55 362.121 1398.33 364.919 1398.58 367.421C1398.82 369.808 1400.53 372.155 1403.28 373.86C1406.51 375.86 1410.34 376.489 1413.07 375.461C1413.95 375.127 1414.84 374.777 1415.74 374.426C1419.82 372.822 1424.05 371.163 1428.48 370.528C1435.26 369.549 1439.7 372.862 1443.62 375.782C1446.24 377.741 1448.72 379.592 1451.85 380.302C1461.68 382.535 1471.02 381.119 1477.49 376.428C1479.65 374.855 1481.35 372.717 1483.15 370.453C1484.15 369.199 1485.18 367.903 1486.32 366.68C1489.77 362.963 1494.15 360.788 1498.38 358.683C1501.09 357.338 1503.64 356.07 1505.92 354.441C1514.22 348.527 1517.83 337.04 1514.16 328.287C1509.55 317.29 1495.85 317.002 1485.52 320.098C1477.52 322.496 1459.5 324.28 1450.59 321.501C1447.49 320.535 1444.38 319.272 1441.37 318.052C1434.52 315.272 1427.43 312.401 1420.3 312.989C1409.27 313.903 1401.34 320.277 1392.96 327.026C1388.94 330.258 1382.82 331.195 1376.9 332.102C1372.95 332.707 1369.22 333.276 1366.59 334.451C1359.9 337.441 1356.42 342.644 1352.88 348.637C1351.43 351.076 1350.71 354.089 1350.71 357.376C1351.16 358.077 1351.24 358.987 1350.84 359.776C1351.1 362.267 1351.74 364.864 1352.77 367.455C1355.75 374.956 1361.4 380.704 1367.51 382.454C1369.31 382.972 1371.23 383.304 1373.25 383.654C1376.7 384.25 1380.26 384.866 1383.59 386.48C1389 389.099 1392.47 392.524 1396.45 396.731C1402.19 402.796 1410.15 406.265 1418.29 406.164C1424.08 406.115 1429.56 404.45 1435.36 402.687C1436.14 402.451 1436.92 402.215 1437.7 401.983C1444.94 399.823 1451.38 398.745 1457.24 398.745C1462.27 398.745 1466.89 399.539 1471.24 401.124C1473.74 402.036 1476.01 403.188 1478.2 404.302C1481.73 406.093 1485.07 407.785 1489 408.308C1498.73 409.597 1506.32 403.077 1514.35 396.171C1519.04 392.136 1523.9 387.964 1529.28 385.412C1535.76 382.343 1543.1 381.58 1550.2 380.841C1562.32 379.579 1572.79 378.49 1577.86 367.093C1579.51 363.376 1579.96 359.198 1579.08 355.63C1577.99 351.149 1574.16 348.928 1569.73 346.355Z" fill="url(#paint2_linear_721_788)"/>
<path d="M1408.65 100.049C1410.41 89.2498 1421.63 87.3356 1430.65 85.797C1432.23 85.5276 1433.72 85.2715 1435.11 84.9826C1444.99 82.9185 1453.73 76.7945 1457.91 69.0027C1460.93 63.3774 1461.31 57.3363 1459.01 51.5318C1457.73 48.3289 1455.53 45.476 1453.21 42.4549C1450.54 38.9936 1447.79 35.4141 1446.34 31.0933C1445.22 27.7405 1445.32 24.8718 1446.65 22.5687C1449.08 18.3503 1454.78 17.1787 1460.29 16.0436C1468.23 14.4099 1474.7 8.12014 1475.34 1.41339C1475.8 -3.36704 1473.11 -5.258 1468.32 -8.18893C1465.67 -9.80679 1462.67 -11.6392 1460.44 -14.436C1459.6 -15.4845 1459.78 -17.0146 1460.82 -17.8522C1461.87 -18.6873 1463.4 -18.5191 1464.24 -17.4682C1465.94 -15.3407 1468.44 -13.813 1470.85 -12.3354C1475.59 -9.44103 1480.95 -6.1602 1480.18 1.87912C1480.01 3.6189 1479.57 5.31967 1478.89 6.95094C1487.34 8.33716 1493.44 17.3043 1497.22 22.9089L1497.45 23.2478C1511.55 44.1301 1534.12 49.069 1549.12 43.1486C1557.73 39.752 1565.02 34.6984 1572.07 29.8119C1584.29 21.3386 1595.94 13.2688 1612 15.8156C1610.33 14.3185 1608.58 12.9408 1606.63 11.7643C1596.8 5.85611 1586.47 8.96382 1575.55 12.2544C1573.93 12.7396 1572.33 13.2237 1570.73 13.6735C1563.45 15.7291 1552.48 18.2065 1541.42 16.0022C1524.53 12.636 1511.92 1.30732 1505.91 -5.14584C1495.17 -16.6745 1485.18 -29.0041 1475.52 -40.9278C1472.61 -44.5134 1469.71 -48.099 1466.78 -51.6652C1458.61 -61.6271 1447.18 -68.4168 1434.6 -70.782C1414.67 -74.5298 1400.39 -67.8669 1394.21 -61.0273C1386.54 -52.5332 1388.73 -44.1257 1391.27 -34.3905C1393.09 -27.4253 1394.97 -20.2211 1393.06 -12.6682C1390.89 -4.05832 1383.34 3.63475 1374.29 6.4779C1369.77 7.89459 1365.64 8.98699 1361.59 8.97723C1369.29 12.447 1378.52 13.6443 1386.86 12.0947C1398.07 10.0111 1405.63 3.14342 1410.63 -9.51662C1411.12 -10.7651 1412.53 -11.3808 1413.78 -10.8845C1415.03 -10.392 1415.64 -8.97896 1415.15 -7.73173C1409.55 6.43888 1400.59 14.4867 1387.75 16.8727C1384.97 17.3884 1382.14 17.6408 1379.31 17.6408C1370.19 17.6408 1361.05 15.0342 1353.7 10.1806C1342.18 2.56431 1338.47 -8.8034 1334.89 -19.7956C1331.96 -28.7591 1329.2 -37.2251 1322.48 -43.8672C1312.84 -53.3781 1299.87 -57.1332 1287.76 -53.9072C1285.87 -53.4025 1284.1 -52.4832 1282.39 -51.5944C1278.1 -49.3597 1272.75 -46.5763 1267.18 -53.4049C1251.71 -72.3548 1230.92 -74.6237 1217.17 -68.4656C1205.77 -63.3559 1200.57 -54.2547 1195.06 -44.6195C1192.51 -40.1475 1189.87 -35.5219 1186.53 -31.1889C1185.79 -30.2294 1184.97 -29.2931 1184.09 -28.375C1193.97 -30.5074 1205.85 -30.4111 1210.93 -29.6564C1222.84 -27.8873 1230.03 -20.7783 1237.64 -13.2522C1239.12 -11.7977 1240.61 -10.3237 1242.16 -8.86558C1249.68 -1.8016 1265.38 0.223466 1282.01 2.36802C1302.81 5.05023 1324.31 7.82388 1333.12 21.2727C1337.73 28.3148 1338.35 37.327 1335.01 48.8264C1331.71 60.1599 1322.68 66.5753 1313.94 72.7798C1312.32 73.9355 1310.7 75.0877 1309.12 76.2654C1301.27 82.1456 1295.04 89.5107 1290.62 98.1535C1289.9 99.5665 1289.21 101.072 1288.49 102.666C1285.03 110.283 1280.73 119.765 1269.71 120.573C1269.65 120.577 1269.59 120.579 1269.53 120.579C1268.27 120.579 1267.2 119.605 1267.11 118.326C1267.01 116.987 1268.01 115.822 1269.35 115.724C1277.5 115.127 1280.69 108.098 1284.06 100.656C1284.78 99.0813 1285.52 97.4524 1286.29 95.9382C1291.06 86.6309 1297.76 78.7026 1306.21 72.375C1307.82 71.1729 1309.47 69.9964 1311.13 68.8174C1319.56 62.8312 1327.52 57.1766 1330.34 47.4694C1333.26 37.416 1332.84 29.718 1329.06 23.9354C1321.47 12.358 1301.09 9.73069 1281.39 7.18868C1263.96 4.9405 1247.5 2.8179 1238.83 -5.32262C1237.25 -6.80881 1235.73 -8.31207 1234.23 -9.7946C1226.89 -17.0475 1220.55 -23.3117 1210.21 -24.8479C1202.14 -26.0464 1185.02 -25.0869 1177.19 -21.0148C1193.68 -21.6012 1209.25 -21.6536 1222.81 -8.5815C1225.98 -5.51891 1228.49 -1.83818 1230.92 1.72063C1234.77 7.36303 1238.41 12.6933 1244.39 15.534C1250.34 18.3564 1257.08 18.3284 1264.2 18.3052C1271.2 18.2809 1278.43 18.2528 1285.27 21.0228C1291.48 23.538 1296.26 27.6186 1298.74 32.5124C1302.34 39.6044 1301.25 48.4009 1295.98 54.9211C1293.66 57.7898 1291.1 60.0417 1288.63 62.2192C1282.96 67.2117 1278.86 70.8193 1280.18 79.0159C1282.07 90.7798 1274.55 101.442 1261.01 106.177C1251.38 109.546 1232.06 113.368 1220.74 106.333C1216.63 103.776 1213.43 100.446 1210.33 97.2245C1207.8 94.5825 1205.4 92.088 1202.56 90.0154C1196.7 85.7434 1189.63 85.074 1182.14 84.3645C1177.09 83.8865 1171.87 83.3928 1166.91 81.7286C1157.37 78.5355 1151.59 71.5935 1150.63 62.1826C1149.39 49.9712 1156.71 35.9688 1167.66 29.612C1178.4 23.3758 1196.83 22.6407 1208.74 27.9697C1216.2 31.3079 1220.89 36.6869 1222.3 43.5266C1223.51 49.3774 1221.6 54.3615 1216.94 57.5619C1210.46 62.0082 1199.77 61.8875 1192.61 57.2839C1191.48 56.5585 1191.15 55.054 1191.88 53.925C1192.6 52.796 1194.1 52.4681 1195.24 53.1947C1200.78 56.7596 1209.28 56.9193 1214.19 53.5532C1217.22 51.472 1218.35 48.4289 1217.54 44.508C1216.44 39.1887 1212.82 35.1166 1206.76 32.4064C1196.1 27.6381 1179.66 28.2684 1170.1 33.8145C1160.85 39.1838 1154.43 51.4281 1155.47 61.69C1156.01 66.924 1158.69 73.8502 1168.45 77.1188C1172.89 78.6038 1177.6 79.0513 1182.6 79.5243C1190.41 80.2631 1198.49 81.0288 1205.42 86.086C1208.61 88.411 1211.27 91.1785 1213.84 93.8546C1216.86 96.9989 1219.71 99.9688 1223.31 102.202C1231.8 107.484 1247.97 105.584 1259.4 101.587C1270.61 97.667 1276.88 89.1108 1275.38 79.7864C1273.63 68.9405 1279.62 63.6663 1285.42 58.5677C1287.74 56.5243 1290.14 54.4103 1292.2 51.8621C1296.21 46.9049 1297.09 40.0104 1294.41 34.707C1292.46 30.8604 1288.56 27.5991 1283.44 25.5253C1277.49 23.1149 1271.05 23.1405 1264.22 23.1637C1256.84 23.1844 1249.25 23.2186 1242.31 19.9219C1235.14 16.5167 1230.95 10.3866 1226.91 4.45771C1224.51 0.946445 1222.25 -2.36975 1219.43 -5.0861C1206.82 -17.2487 1191.55 -16.683 1175.38 -16.088C1171.47 -15.943 1167.43 -15.7954 1163.37 -15.8223C1161.25 -15.8369 1159.19 -16.0003 1157.16 -16.2721C1155.42 -16.3185 1153.68 -16.5209 1151.95 -16.9232C1151.57 -17.0134 1151.23 -17.1987 1150.95 -17.4389C1147.08 -18.3509 1143.33 -19.5359 1139.65 -20.7039C1136.04 -21.8475 1132.31 -23.0301 1128.56 -23.9189C1118.73 -26.25 1109.52 -25.8257 1101.92 -22.6887C1091.3 -18.2997 1083.48 -9.8519 1081.01 -0.0898634C1079.67 5.18068 1079.8 10.8194 1081.38 16.218C1082.04 18.4552 1083.37 20.6339 1084.78 22.9381C1086.53 25.8057 1088.34 28.7707 1088.97 32.1345C1090.35 39.5167 1084.1 45.6821 1079.08 50.6357C1077.35 52.3425 1075.72 53.9555 1074.55 55.4368C1068.15 63.5152 1065.08 71.4289 1065.41 78.961C1066.15 95.6505 1082.17 109.882 1101.88 111.361C1105.95 111.665 1110.04 111.245 1113.99 110.839C1122.76 109.934 1131.84 108.999 1140.53 116.147C1144.87 119.717 1148.08 124.038 1151.17 128.216C1155.17 133.616 1158.95 138.717 1164.95 142.115C1173.51 146.965 1183.99 148.722 1193.72 146.942C1197.89 146.176 1201.6 144.295 1205.53 142.303C1210.14 139.969 1214.9 137.558 1220.57 136.97C1227.7 136.23 1234.02 139.029 1240.13 141.737C1243.43 143.2 1246.55 144.58 1249.75 145.414C1267.14 149.943 1283.6 148.919 1293.78 142.675C1300.91 138.305 1306.65 131.381 1309.54 123.68C1310.88 120.116 1311.3 116.296 1311.73 112.252C1312.26 107.395 1312.8 102.372 1315.06 97.628C1318.43 90.5177 1325.41 88.1793 1332.16 85.9177C1338.41 83.8256 1344.31 81.8493 1347.23 76.2825C1349.39 72.1885 1350.19 67.4141 1350.73 62.8653C1350.89 61.5327 1352.09 60.5769 1353.43 60.7403C1354.77 60.9 1355.72 62.1094 1355.56 63.442C1354.96 68.4541 1354.05 73.7527 1351.54 78.5441C1347.7 85.8385 1340.27 88.3293 1333.71 90.5275C1327.65 92.555 1321.94 94.4703 1319.45 99.714C1317.55 103.713 1317.07 108.115 1316.57 112.775C1316.12 116.941 1315.65 121.25 1314.1 125.388C1310.83 134.084 1304.35 141.895 1296.32 146.82C1293.35 148.639 1284.62 153.068 1270.14 153.068C1263.98 153.069 1256.77 152.266 1248.53 150.118C1244.95 149.185 1241.5 147.657 1238.16 146.181C1232.38 143.619 1226.93 141.203 1221.07 141.805C1216.29 142.299 1212.14 144.407 1207.73 146.638C1203.66 148.699 1199.46 150.831 1194.59 151.722C1187.95 152.94 1180.99 152.666 1174.4 151.031C1174.37 151.043 1174.35 151.061 1174.33 151.072C1162.86 155.998 1160.97 162.894 1160.56 167.653C1159.04 184.817 1176.8 191.357 1192.47 197.127L1193.51 197.511C1198.53 199.362 1210.5 204.895 1213.32 216.249C1214.77 222.105 1213.3 227.425 1211.88 232.571C1210.89 236.158 1209.96 239.548 1210.02 243.003C1210.12 249.205 1214.14 254.083 1222.66 258.354C1240.74 267.417 1261.54 271.032 1279.7 268.267C1296.93 265.647 1320.85 254.341 1320.12 237.41C1319.69 227.575 1311.72 220.245 1300.74 219.586C1298.3 219.442 1295.32 219.726 1292.15 220.028C1285.14 220.701 1276.77 221.482 1270.18 217.753C1267.73 217.074 1251.9 212.247 1246.69 199.369C1243.46 191.38 1245.04 182.14 1251.36 171.903C1252.07 170.76 1253.56 170.406 1254.71 171.113C1255.85 171.819 1256.2 173.316 1255.5 174.459C1250.03 183.297 1248.58 191.059 1251.19 197.529C1253.45 203.146 1258.43 207.003 1262.91 209.476C1260.35 202.153 1264.81 194.121 1267.16 190.604C1271.74 183.783 1283.96 177.206 1289 174.694C1290.2 174.094 1291.66 174.587 1292.26 175.786C1292.86 176.987 1292.37 178.448 1291.17 179.045C1283.62 182.805 1274.41 188.527 1271.2 193.311C1268.99 196.613 1264.35 204.899 1269.03 210.565C1270 211.737 1271.09 212.658 1272.29 213.381C1272.3 213.391 1272.32 213.401 1272.34 213.411C1277.57 216.54 1284.72 215.856 1291.69 215.189C1295.04 214.869 1298.21 214.562 1301.03 214.735C1310.88 215.326 1318.75 220.377 1322.53 227.849C1322.63 227.969 1322.72 228.098 1322.8 228.24C1332.38 245.68 1348.38 254.118 1365.57 250.808C1372.49 249.477 1378.33 246.725 1384.5 243.812C1388.56 241.901 1392.75 239.924 1397.29 238.373C1404.8 235.802 1412.24 237.087 1419.44 238.328C1427.75 239.762 1435.6 241.118 1442.98 236.431C1448.99 232.608 1452.74 225.95 1452.52 219.471C1452.37 214.798 1450.71 211.662 1446.97 208.984C1443.46 206.465 1438.65 203.016 1440.9 195.96C1441.64 193.623 1442.68 191.803 1443.59 190.196C1444.79 188.103 1445.82 186.295 1446.1 183.623C1446.31 181.685 1446.55 179.489 1446.05 177.724C1439.66 154.907 1403.49 158.479 1396.3 159.426C1385.82 160.81 1375.93 156.361 1367.48 152.082C1360.29 148.439 1353.77 147.712 1348.09 149.919C1342.21 152.209 1337.4 157.632 1334.55 165.188C1332.26 171.28 1333.06 176.953 1336.93 182.048C1344.98 192.622 1363.75 197.923 1376.51 196.78C1381.29 196.35 1385.41 194.534 1387.55 191.919C1388.87 190.313 1389.41 188.412 1389.18 186.268C1388.84 183.154 1387.47 180.819 1384.99 179.131C1379.79 175.583 1370.95 175.756 1364.5 177.503C1363.33 177.824 1362.14 177.223 1361.66 176.151C1361.36 175.957 1361.1 175.704 1360.9 175.382C1360.21 174.233 1360.58 172.738 1361.73 172.045C1376.64 163.047 1397.03 163.725 1411.31 173.692C1416.01 176.978 1418.82 180.496 1419.87 184.449C1420.77 187.797 1420.32 191.098 1419.88 194.29C1419.47 197.278 1419.08 200.101 1419.89 202.572C1420.37 204.034 1421.29 205.47 1422.26 206.99C1423.93 209.59 1425.82 212.535 1425.59 216.161C1425.22 221.927 1419.41 225.717 1414.25 225.923C1414.04 225.93 1413.83 225.935 1413.63 225.935C1408.87 225.937 1404.58 223.786 1400.9 221.751L1399.95 221.221C1396.59 219.344 1393.42 217.573 1389.99 217.123C1385.09 216.479 1380.3 218.575 1375.23 220.794C1373.09 221.728 1370.88 222.693 1368.63 223.457C1359.5 226.553 1347.32 225.912 1340.67 217.508C1339.83 216.456 1340.01 214.927 1341.06 214.095C1342.11 213.262 1343.64 213.439 1344.48 214.492C1349.63 221.005 1359.8 221.318 1367.07 218.854C1369.12 218.157 1371.14 217.274 1373.28 216.339C1378.74 213.952 1384.39 211.487 1390.62 212.302C1394.97 212.873 1398.71 214.958 1402.32 216.975L1403.26 217.499C1406.52 219.302 1410.29 221.238 1414.06 221.065C1417.13 220.943 1420.55 218.818 1420.74 215.849C1420.87 213.817 1419.62 211.87 1418.17 209.615C1417.07 207.904 1415.94 206.134 1415.27 204.08C1414.11 200.547 1414.6 197.031 1415.06 193.629C1415.45 190.789 1415.82 188.106 1415.18 185.706C1414.43 182.905 1412.25 180.279 1408.52 177.677C1399.3 171.239 1387.23 169.164 1376.21 171.536C1380.36 171.831 1384.45 172.88 1387.73 175.113C1391.35 177.58 1393.52 181.255 1394.01 185.736C1394.39 189.177 1393.45 192.38 1391.31 194.996C1388.32 198.655 1383.08 201.068 1376.95 201.62C1362.58 202.911 1342.23 197.047 1333.06 184.989C1328.18 178.566 1327.12 171.127 1330 163.474C1333.34 154.608 1339.14 148.184 1346.33 145.387C1353.35 142.659 1361.2 143.451 1369.68 147.745C1377.47 151.695 1386.55 155.808 1395.67 154.606C1406.11 153.228 1417.3 153.356 1426.93 155.869C1427.41 155.483 1428.03 155.276 1428.69 155.344C1449 157.378 1465.07 141.833 1468.32 126.25C1469.6 120.095 1466.16 113.343 1460.32 110.543C1455.32 108.147 1449.97 107.588 1444.84 108.921L1444.46 109.019C1433.66 111.827 1421.42 115.01 1409.69 112.795C1395.17 110.055 1385.36 96.7404 1387.82 83.1124C1389.17 75.5729 1394.68 71.78 1400 68.1127C1404.65 64.9123 1409.03 61.89 1410.47 56.4792C1410.81 55.182 1412.15 54.4103 1413.44 54.7516C1414.74 55.0954 1415.51 56.4256 1415.17 57.724C1413.27 64.8733 1407.69 68.7223 1402.76 72.1165C1397.85 75.5034 1393.6 78.4282 1392.6 83.9756C1390.62 94.9775 1398.67 105.755 1410.56 108.012C1408.91 105.606 1408.21 102.744 1408.65 100.049ZM1246.86 125.028C1238.24 127.715 1230.57 129.059 1223.74 129.059C1217.28 129.06 1211.59 127.855 1206.56 125.449C1199.69 122.158 1194.24 116.768 1188.98 111.557C1184.97 107.591 1181.19 103.847 1176.84 100.959C1170.1 96.482 1162.67 96.1016 1154.82 95.6992C1144.25 95.1579 1133.33 94.5971 1124.47 83.5696C1117.4 74.7658 1113.95 63.0019 1114.76 50.4467C1115.51 38.6974 1119.81 27.2187 1126.83 18.1236C1139.48 1.75964 1157.87 -3.14271 1176.02 5.01121C1177.25 5.56107 1177.79 6.99971 1177.24 8.22377C1176.69 9.44906 1175.26 9.99403 1174.03 9.44418C1151.02 -0.890875 1136.05 14.149 1130.68 21.096C1118.59 36.7393 1114.37 63.2457 1128.26 80.5252C1135.75 89.8545 1145.14 90.3348 1155.07 90.8444C1163.23 91.2626 1171.67 91.6954 1179.53 96.9087C1184.27 100.059 1188.4 104.148 1192.4 108.103C1197.61 113.259 1202.52 118.129 1208.66 121.066C1217.83 125.46 1229.86 125.238 1245.42 120.389C1246.69 119.99 1248.06 120.704 1248.46 121.986C1248.86 123.265 1248.15 124.628 1246.86 125.028Z" fill="url(#paint3_linear_721_788)"/>
<g opacity="0.67">
<path d="M1217.68 477.612C1211.65 468.031 1210.29 455.987 1214.13 446.176C1217.31 438.052 1223.72 430.654 1231.71 425.88C1235.53 423.601 1238.77 419.942 1240.83 415.578C1241.81 413.513 1242.23 411.375 1242.64 409.306C1242.96 407.726 1243.25 406.233 1243.77 404.83C1246.47 397.584 1252.15 392.08 1259.78 389.33C1262.97 388.178 1266.36 387.871 1269.95 387.547C1273.38 387.237 1276.93 386.916 1280.39 385.802C1281.18 385.548 1281.97 385.285 1282.77 385.021C1288.78 383.02 1295 380.952 1301.03 382.536C1305.78 383.786 1310.07 386.704 1314.22 389.527C1315.39 390.324 1316.55 391.114 1317.71 391.861C1320.49 393.652 1323.45 394.474 1326.3 395.268C1326.95 395.447 1327.6 395.629 1328.26 395.821C1334.65 397.709 1341.62 400.254 1343.46 406.612C1344.18 409.128 1343.87 411.896 1342.61 414.018C1341.2 416.416 1338.36 417.752 1335.36 419.166C1331.51 420.98 1327.14 423.037 1325.86 427.863C1324.92 431.419 1326.21 435.004 1327.35 438.167C1328.02 440.033 1328.66 441.796 1328.84 443.414C1329.05 445.337 1329.07 448.974 1326.88 451.715C1324.09 455.217 1318.45 456.261 1314.39 455.748C1311.6 455.397 1309.39 453.841 1307.06 452.194C1305.79 451.291 1304.47 450.356 1302.98 449.564C1297.82 446.808 1291.91 446.953 1286.8 447.46C1280.85 448.053 1276.27 447.747 1273.23 444.349C1268.37 438.91 1270.39 429.498 1275.38 425.029C1278.95 421.828 1284.95 419.999 1290.69 420.361C1295.35 420.659 1299.24 422.353 1301.64 425.135C1304.06 427.931 1302.44 430.799 1301.89 431.611C1300.54 433.587 1297.75 435.246 1294.81 434.21C1293.52 433.756 1291.78 432.458 1291.23 431.247C1291.01 430.747 1291.07 430.46 1291.14 430.265C1291.54 429.278 1291.07 428.157 1290.08 427.759C1289.1 427.363 1287.97 427.837 1287.57 428.825C1287.06 430.098 1287.11 431.484 1287.72 432.833C1288.81 435.255 1291.5 437.127 1293.53 437.843C1297.69 439.31 1302.44 437.638 1305.07 433.781C1307.52 430.191 1307.31 425.81 1304.56 422.619C1301.47 419.049 1296.64 416.884 1290.94 416.521C1285.27 416.16 1279.57 417.605 1275.29 420.331C1275.05 420.334 1274.8 420.381 1274.57 420.481C1270.07 422.389 1263.57 426.965 1258.83 434.087C1255.18 439.567 1251.45 448.332 1254.45 458.969C1256.28 465.481 1261.21 470.888 1267.98 473.804C1271.51 475.327 1275.3 476.083 1279.04 476.083C1283.33 476.083 1287.58 475.091 1291.34 473.119C1292.28 472.625 1292.65 471.462 1292.15 470.521C1291.66 469.577 1290.5 469.218 1289.55 469.709C1283.52 472.869 1276.03 473.079 1269.51 470.27C1263.81 467.816 1259.67 463.317 1258.15 457.927C1254.82 446.08 1261.01 435.729 1267.94 429.45C1265.75 435.215 1266.06 442.109 1270.36 446.919C1274.73 451.797 1281.03 451.904 1287.18 451.294C1291.94 450.82 1296.92 450.699 1301.17 452.963C1302.44 453.643 1303.61 454.467 1304.84 455.341C1307.46 457.188 1310.16 459.098 1313.9 459.571C1319.17 460.233 1326.15 458.807 1329.89 454.12C1332.15 451.288 1333.14 447.339 1332.66 442.999C1332.44 440.924 1331.69 438.86 1330.97 436.864C1329.93 433.975 1328.95 431.246 1329.58 428.853C1330.4 425.759 1333.46 424.319 1337 422.652C1340.4 421.052 1343.91 419.397 1345.93 415.979C1347.74 412.917 1348.18 409.115 1347.16 405.548C1346.96 404.891 1346.72 404.275 1346.46 403.681C1346.69 403.518 1346.89 403.308 1347.03 403.046C1349.56 398.406 1356.34 396.404 1361.76 396.822C1366.58 397.197 1371.96 400.049 1374.83 403.757C1376.04 405.319 1377.14 407.878 1376.59 410.376C1376.37 411.337 1375.7 412.285 1375 413.29C1373.87 414.891 1372.58 416.706 1372.67 419.188C1372.83 423.761 1377.53 425.372 1380.64 426.438C1381.19 426.628 1381.72 426.806 1382.17 426.987C1386.26 428.618 1388.54 431.073 1389.15 434.494C1389.7 437.609 1388.48 441.13 1386.18 443.056C1383.09 445.643 1378.62 445.128 1374.28 444.628C1373.68 444.558 1373.08 444.489 1372.49 444.429C1365.21 443.688 1357.6 444.939 1351.07 447.953C1342.97 451.685 1337.48 456.177 1334.75 461.304C1332.78 465 1332.59 469.327 1334.22 473.176C1335.78 476.862 1338.88 479.606 1342.71 480.705C1347.35 482.034 1351.23 479.829 1354.65 477.881C1357.27 476.393 1359.77 474.988 1362.35 475.095C1365.31 475.217 1366.49 477.504 1368.18 481.228C1369.79 484.79 1371.79 489.225 1377.01 489.877C1377.44 489.93 1377.87 489.957 1378.31 489.957C1380.04 489.957 1381.87 489.542 1383.76 488.717C1390.49 485.778 1394.21 479.719 1396.96 474.181C1397.35 473.399 1397.73 472.602 1398.11 471.799C1400.49 466.831 1402.95 461.694 1407.51 458.957C1413.7 455.242 1421.46 456.191 1428.96 457.106C1429.81 457.21 1430.65 457.312 1431.48 457.407C1437.17 458.052 1442.61 456.244 1446.47 452.788C1446.65 452.643 1446.81 452.504 1446.96 452.373C1445.45 456.139 1442.74 459.407 1439.26 461.381C1436.06 463.194 1432.42 463.802 1428.57 464.446C1425.17 465.014 1421.66 465.6 1418.35 467.076C1410.57 470.54 1407.49 478.657 1404.78 485.817C1404.15 487.457 1403.57 489.005 1402.94 490.474C1397.56 503.04 1381.44 508.187 1369.59 505.749C1366.01 505.013 1362.69 503.391 1359.17 501.676C1354.7 499.49 1350.07 497.23 1344.77 496.886C1337.66 496.425 1332.25 499.543 1327.02 502.556C1325.02 503.704 1322.96 504.89 1320.84 505.859C1313.64 509.138 1306.55 509.056 1299.75 505.62C1296.45 503.952 1293.8 501.43 1291.01 498.76C1289 496.841 1286.92 494.856 1284.54 493.176C1279.21 489.404 1272.7 488.633 1268.18 488.681C1264.37 488.708 1260.81 489.494 1257.38 490.256C1255.3 490.716 1253.15 491.192 1251.01 491.478C1246.68 492.057 1241.44 491.742 1236.64 490.617C1228.5 488.715 1221.77 484.095 1217.68 477.612Z" fill="#005571"/>
<path d="M1429.42 453.286C1421.66 452.335 1412.86 451.259 1405.53 455.658C1399.98 458.99 1397.14 464.911 1394.64 470.137C1394.26 470.924 1393.89 471.706 1393.51 472.471C1391.07 477.388 1387.82 482.744 1382.22 485.19C1380.49 485.944 1378.9 486.234 1377.49 486.058C1374.62 485.698 1373.38 483.394 1371.69 479.643C1370.04 476.003 1367.99 471.473 1362.51 471.25C1358.79 471.093 1355.72 472.846 1352.75 474.536C1349.59 476.334 1346.86 477.883 1343.78 477.004C1341.02 476.216 1338.89 474.322 1337.76 471.673C1336.59 468.899 1336.73 465.779 1338.15 463.113C1340.47 458.745 1345.36 454.82 1352.68 451.448C1356.03 449.904 1359.69 448.891 1363.43 448.407C1362.3 450.529 1362.05 453.211 1362.47 455.179C1363.25 458.821 1365.42 461.498 1368.74 462.917C1370.73 463.769 1373.03 464.126 1375.43 464.126C1381.73 464.126 1388.7 461.673 1392.57 459.291C1394.91 457.851 1396.99 456.21 1399.01 454.623C1402.85 451.605 1406.47 448.756 1411.35 447.635C1416.69 446.41 1421.06 448.762 1425.7 451.25C1427.01 451.957 1428.35 452.672 1429.73 453.323C1429.63 453.311 1429.53 453.299 1429.42 453.286Z" fill="#005571"/>
</g>
</g>
</g>
<defs>
<linearGradient id="paint0_linear_721_788" x1="-88.0009" y1="544.966" x2="169.54" y2="544.966" gradientUnits="userSpaceOnUse">
<stop offset="0.0187" stop-color="#FFE08B"/>
<stop offset="0.715" stop-color="#E0B058"/>
<stop offset="0.8377" stop-color="#E0B058"/>
<stop offset="1" stop-color="#E0B058"/>
</linearGradient>
<linearGradient id="paint1_linear_721_788" x1="786.604" y1="-29.4067" x2="1059.53" y2="-29.4067" gradientUnits="userSpaceOnUse">
<stop offset="0.0187" stop-color="#FFE08B"/>
<stop offset="0.715" stop-color="#E0B058"/>
<stop offset="0.8377" stop-color="#E0B058"/>
<stop offset="1" stop-color="#E0B058"/>
</linearGradient>
<linearGradient id="paint2_linear_721_788" x1="1331.51" y1="339.393" x2="1579.52" y2="339.393" gradientUnits="userSpaceOnUse">
<stop offset="0.0187" stop-color="#FFE08B"/>
<stop offset="0.715" stop-color="#E0B058"/>
<stop offset="0.8377" stop-color="#E0B058"/>
<stop offset="1" stop-color="#E0B058"/>
</linearGradient>
<linearGradient id="paint3_linear_721_788" x1="1065.39" y1="98.657" x2="1612" y2="98.657" gradientUnits="userSpaceOnUse">
<stop offset="0.0187" stop-color="#FFE08B"/>
<stop offset="0.715" stop-color="#E0B058"/>
<stop offset="0.8377" stop-color="#E0B058"/>
<stop offset="1" stop-color="#E0B058"/>
</linearGradient>
<clipPath id="clip0_721_788">
<rect width="1440" height="543" fill="white"/>
</clipPath>
</defs>
</svg>
