<svg width="1440" height="139" viewBox="0 0 1440 139" fill="none" xmlns="http://www.w3.org/2000/svg">
<path opacity="0.09" d="M243 145C201.87 36.2072 63.1957 22.6449 -1 29.4629V145H243Z" fill="#F1C600"/>
<path opacity="0.16" d="M-1 145H365C329.029 110.103 262.764 52.0835 195.282 72.2625C83.4042 105.717 42.8071 76.8412 -1 53V145Z" fill="#F1C600"/>
<path opacity="0.16" d="M-1 145H530C477.813 125.655 381.675 93.492 283.77 104.678C121.455 123.224 62.5562 107.216 -1 94V145Z" fill="#F1C600"/>
<path opacity="0.16" d="M299 145H830C777.813 125.655 678 88 546.5 94C383.299 101.446 299 145 299 145Z" fill="#F1C600"/>
<path opacity="0.16" d="M1453 145H953C992.27 90 1129.17 36.378 1202.85 68.1818C1324.99 120.909 1405.17 37.5758 1453 0V145Z" fill="#F1C600"/>
<path opacity="0.16" d="M1453 145H710C768.356 110.103 971.794 76.0812 1081.27 96.2602C1262.77 129.715 1381.93 76.8412 1453 53V145Z" fill="#F1C600"/>
</svg>
